<svg xmlns="http://www.w3.org/2000/svg" viewBox="0 0 800 600" role="img" aria-labelledby="cTitle cDesc">
  <title id="cTitle">Community Orchard</title>
  <desc id="cDesc">Families tending gardens around a circular sandbox.</desc>
  <defs>
    <linearGradient id="orchardSky" x1="0%" y1="0%" x2="0%" y2="100%">
      <stop offset="0%" stop-color="#ffe8c2" />
      <stop offset="100%" stop-color="#f6b774" />
    </linearGradient>
  </defs>
  <rect width="800" height="600" fill="url(#orchardSky)" />
  <circle cx="400" cy="420" r="160" fill="#f5deb3" stroke="#d8a05c" stroke-width="10" />
  <circle cx="400" cy="420" r="90" fill="#fcefdc" />
  <g fill="#7aa052">
    <circle cx="140" cy="360" r="70" />
    <circle cx="660" cy="340" r="70" />
    <circle cx="240" cy="520" r="60" />
    <circle cx="600" cy="520" r="60" />
  </g>
  <g stroke="#fff5d6" stroke-width="8" stroke-linecap="round">
    <path d="M150 310 q60 20 70 80" />
    <path d="M650 310 q-60 20 -70 80" />
  </g>
  <g fill="#fdf1d6" stroke="#a2622a" stroke-width="4">
    <rect x="120" y="420" width="60" height="80" rx="10" />
    <rect x="620" y="430" width="60" height="80" rx="10" />
    <rect x="360" y="300" width="80" height="60" rx="8" />
  </g>
  <g fill="#ffce54">
    <circle cx="220" cy="340" r="12" />
    <circle cx="580" cy="320" r="12" />
    <circle cx="260" cy="520" r="10" />
    <circle cx="560" cy="520" r="10" />
  </g>
  <g fill="none" stroke="#8b5a2b" stroke-width="6" stroke-linecap="round">
    <path d="M200 460 q40 30 80 0" />
    <path d="M520 460 q40 30 80 0" />
  </g>
</svg>
